<mxfile host="app.diagrams.net" agent="Mozilla/5.0 (Windows NT 10.0; Win64; x64) AppleWebKit/537.36 (KHTML, like Gecko) Chrome/134.0.0.0 Safari/537.36" version="26.1.0">
  <diagram name="Sayfa -1" id="ux2JALxSSiCjwmwwlSy5">
    <mxGraphModel dx="988" dy="603" grid="0" gridSize="10" guides="1" tooltips="1" connect="1" arrows="1" fold="1" page="1" pageScale="1" pageWidth="827" pageHeight="1169" math="0" shadow="0">
      <root>
        <mxCell id="0" />
        <mxCell id="1" parent="0" />
        <mxCell id="3yWMJIRGumV0roXvyja1-2" value="&lt;b&gt;RPC Server&lt;/b&gt;" style="rounded=1;whiteSpace=wrap;html=1;fillColor=#fff2cc;strokeColor=#d6b656;align=center;labelPosition=center;verticalLabelPosition=top;verticalAlign=bottom;gradientColor=none;shadow=0;glass=0;sketch=1;curveFitting=1;jiggle=2;" vertex="1" parent="1">
          <mxGeometry x="293" y="33" width="200" height="320" as="geometry" />
        </mxCell>
        <mxCell id="3yWMJIRGumV0roXvyja1-9" style="edgeStyle=orthogonalEdgeStyle;rounded=0;orthogonalLoop=1;jettySize=auto;html=1;exitX=0.5;exitY=0;exitDx=0;exitDy=0;entryX=0.5;entryY=1;entryDx=0;entryDy=0;dashed=1;startArrow=classic;startFill=1;flowAnimation=1;shape=link;" edge="1" parent="1" source="3yWMJIRGumV0roXvyja1-5" target="3yWMJIRGumV0roXvyja1-6">
          <mxGeometry relative="1" as="geometry" />
        </mxCell>
        <mxCell id="3yWMJIRGumV0roXvyja1-5" value="&lt;div style=&quot;background-color: rgb(255, 255, 255); font-family: Consolas, &amp;quot;Courier New&amp;quot;, monospace; line-height: 19px; white-space: pre;&quot;&gt;&lt;font style=&quot;font-size: 10px;&quot;&gt;get_gmail_service&lt;/font&gt;&lt;/div&gt;" style="rounded=0;whiteSpace=wrap;html=1;sketch=1;curveFitting=1;jiggle=2;" vertex="1" parent="1">
          <mxGeometry x="314.25" y="173" width="160" height="40" as="geometry" />
        </mxCell>
        <mxCell id="3yWMJIRGumV0roXvyja1-6" value="&lt;div style=&quot;background-color: rgb(255, 255, 255); font-family: Consolas, &amp;quot;Courier New&amp;quot;, monospace; line-height: 19px; white-space: pre;&quot;&gt;&lt;div style=&quot;line-height: 19px;&quot;&gt;&lt;font style=&quot;font-size: 10px;&quot;&gt;get_latest_unread_email&lt;/font&gt;&lt;/div&gt;&lt;/div&gt;" style="rounded=0;whiteSpace=wrap;html=1;sketch=1;curveFitting=1;jiggle=2;" vertex="1" parent="1">
          <mxGeometry x="314.25" y="113" width="160" height="40" as="geometry" />
        </mxCell>
        <mxCell id="3yWMJIRGumV0roXvyja1-31" style="edgeStyle=orthogonalEdgeStyle;rounded=0;orthogonalLoop=1;jettySize=auto;html=1;exitX=0;exitY=0.5;exitDx=0;exitDy=0;entryX=1;entryY=0.5;entryDx=0;entryDy=0;dashed=1;flowAnimation=1;shape=link;" edge="1" parent="1" source="3yWMJIRGumV0roXvyja1-10" target="3yWMJIRGumV0roXvyja1-23">
          <mxGeometry relative="1" as="geometry" />
        </mxCell>
        <mxCell id="3yWMJIRGumV0roXvyja1-35" value="&lt;b&gt;Worker&lt;/b&gt;" style="rounded=1;whiteSpace=wrap;html=1;fillColor=#dae8fc;strokeColor=#6c8ebf;align=center;labelPosition=center;verticalLabelPosition=top;verticalAlign=bottom;shadow=0;glass=0;sketch=1;curveFitting=1;jiggle=2;" vertex="1" parent="1">
          <mxGeometry x="533" y="33" width="200" height="320" as="geometry" />
        </mxCell>
        <mxCell id="3yWMJIRGumV0roXvyja1-42" style="edgeStyle=orthogonalEdgeStyle;rounded=0;orthogonalLoop=1;jettySize=auto;html=1;exitX=1;exitY=0.5;exitDx=0;exitDy=0;entryX=0;entryY=0.5;entryDx=0;entryDy=0;flowAnimation=1;dashed=1;endArrow=none;startFill=0;" edge="1" parent="1" source="3yWMJIRGumV0roXvyja1-12" target="3yWMJIRGumV0roXvyja1-38">
          <mxGeometry relative="1" as="geometry" />
        </mxCell>
        <mxCell id="3yWMJIRGumV0roXvyja1-12" value="&lt;div style=&quot;background-color: rgb(255, 255, 255); font-family: Consolas, &amp;quot;Courier New&amp;quot;, monospace; line-height: 19px; white-space: pre;&quot;&gt;&lt;div style=&quot;line-height: 19px;&quot;&gt;&lt;div style=&quot;line-height: 19px;&quot;&gt;&lt;font style=&quot;font-size: 10px;&quot;&gt;Queue&lt;/font&gt;&lt;/div&gt;&lt;/div&gt;&lt;/div&gt;" style="rounded=0;whiteSpace=wrap;html=1;sketch=1;curveFitting=1;jiggle=2;" vertex="1" parent="1">
          <mxGeometry x="314.25" y="293" width="160" height="40" as="geometry" />
        </mxCell>
        <mxCell id="3yWMJIRGumV0roXvyja1-33" style="edgeStyle=orthogonalEdgeStyle;rounded=0;orthogonalLoop=1;jettySize=auto;html=1;exitX=0.5;exitY=1;exitDx=0;exitDy=0;entryX=0.5;entryY=0;entryDx=0;entryDy=0;shape=link;flowAnimation=1;dashed=1;" edge="1" parent="1" source="3yWMJIRGumV0roXvyja1-10" target="3yWMJIRGumV0roXvyja1-6">
          <mxGeometry relative="1" as="geometry" />
        </mxCell>
        <mxCell id="3yWMJIRGumV0roXvyja1-10" value="&lt;div style=&quot;background-color: rgb(255, 255, 255); font-family: Consolas, &amp;quot;Courier New&amp;quot;, monospace; line-height: 19px; white-space: pre;&quot;&gt;&lt;div style=&quot;line-height: 19px;&quot;&gt;&lt;div style=&quot;line-height: 19px;&quot;&gt;&lt;font style=&quot;font-size: 10px;&quot;&gt;on_request&lt;/font&gt;&lt;/div&gt;&lt;/div&gt;&lt;/div&gt;" style="rounded=0;whiteSpace=wrap;html=1;sketch=1;curveFitting=1;jiggle=2;" vertex="1" parent="1">
          <mxGeometry x="314.25" y="53" width="160" height="40" as="geometry" />
        </mxCell>
        <mxCell id="3yWMJIRGumV0roXvyja1-37" style="edgeStyle=orthogonalEdgeStyle;rounded=0;orthogonalLoop=1;jettySize=auto;html=1;exitX=1;exitY=0.5;exitDx=0;exitDy=0;entryX=0;entryY=0.5;entryDx=0;entryDy=0;endArrow=none;startFill=0;dashed=1;flowAnimation=1;" edge="1" parent="1" source="3yWMJIRGumV0roXvyja1-26" target="3yWMJIRGumV0roXvyja1-12">
          <mxGeometry relative="1" as="geometry" />
        </mxCell>
        <mxCell id="3yWMJIRGumV0roXvyja1-47" style="edgeStyle=orthogonalEdgeStyle;rounded=0;orthogonalLoop=1;jettySize=auto;html=1;exitX=0.5;exitY=0;exitDx=0;exitDy=0;entryX=0.5;entryY=1;entryDx=0;entryDy=0;dashed=1;endArrow=none;startFill=0;flowAnimation=1;" edge="1" parent="1" source="3yWMJIRGumV0roXvyja1-38" target="3yWMJIRGumV0roXvyja1-43">
          <mxGeometry relative="1" as="geometry" />
        </mxCell>
        <mxCell id="3yWMJIRGumV0roXvyja1-38" value="&lt;div style=&quot;background-color: rgb(255, 255, 255); font-family: Consolas, &amp;quot;Courier New&amp;quot;, monospace; line-height: 19px; white-space: pre;&quot;&gt;&lt;div style=&quot;line-height: 19px;&quot;&gt;&lt;div style=&quot;line-height: 19px;&quot;&gt;&lt;div style=&quot;line-height: 19px;&quot;&gt;&lt;font style=&quot;font-size: 10px;&quot;&gt;connect_to_rabbitmq&lt;/font&gt;&lt;/div&gt;&lt;/div&gt;&lt;/div&gt;&lt;/div&gt;" style="rounded=0;whiteSpace=wrap;html=1;sketch=1;curveFitting=1;jiggle=2;" vertex="1" parent="1">
          <mxGeometry x="553" y="293" width="160" height="40" as="geometry" />
        </mxCell>
        <mxCell id="3yWMJIRGumV0roXvyja1-48" style="edgeStyle=orthogonalEdgeStyle;rounded=0;orthogonalLoop=1;jettySize=auto;html=1;exitX=0.5;exitY=0;exitDx=0;exitDy=0;entryX=0.5;entryY=1;entryDx=0;entryDy=0;endArrow=none;startFill=0;dashed=1;flowAnimation=1;" edge="1" parent="1" source="3yWMJIRGumV0roXvyja1-43" target="3yWMJIRGumV0roXvyja1-44">
          <mxGeometry relative="1" as="geometry" />
        </mxCell>
        <mxCell id="3yWMJIRGumV0roXvyja1-43" value="&lt;div style=&quot;background-color: rgb(255, 255, 255); font-family: Consolas, &amp;quot;Courier New&amp;quot;, monospace; line-height: 19px; white-space: pre;&quot;&gt;&lt;font style=&quot;font-size: 10px;&quot;&gt;on_message&lt;/font&gt;&lt;/div&gt;" style="rounded=0;whiteSpace=wrap;html=1;sketch=1;curveFitting=1;jiggle=2;" vertex="1" parent="1">
          <mxGeometry x="553" y="173" width="160" height="40" as="geometry" />
        </mxCell>
        <mxCell id="3yWMJIRGumV0roXvyja1-49" style="edgeStyle=orthogonalEdgeStyle;rounded=0;orthogonalLoop=1;jettySize=auto;html=1;exitX=1;exitY=0.5;exitDx=0;exitDy=0;flowAnimation=1;dashed=1;" edge="1" parent="1" source="3yWMJIRGumV0roXvyja1-44">
          <mxGeometry relative="1" as="geometry">
            <mxPoint x="753" y="133" as="targetPoint" />
          </mxGeometry>
        </mxCell>
        <mxCell id="3yWMJIRGumV0roXvyja1-44" value="&lt;div style=&quot;background-color: rgb(255, 255, 255); font-family: Consolas, &amp;quot;Courier New&amp;quot;, monospace; line-height: 19px; white-space: pre;&quot;&gt;&lt;div style=&quot;line-height: 19px;&quot;&gt;&lt;font style=&quot;font-size: 10px;&quot;&gt;send_email_alert&lt;/font&gt;&lt;/div&gt;&lt;/div&gt;" style="rounded=0;whiteSpace=wrap;html=1;sketch=1;curveFitting=1;jiggle=2;" vertex="1" parent="1">
          <mxGeometry x="553" y="113" width="160" height="40" as="geometry" />
        </mxCell>
        <mxCell id="3yWMJIRGumV0roXvyja1-46" style="edgeStyle=orthogonalEdgeStyle;rounded=0;orthogonalLoop=1;jettySize=auto;html=1;exitX=0.5;exitY=1;exitDx=0;exitDy=0;entryX=0.5;entryY=0;entryDx=0;entryDy=0;shape=link;flowAnimation=1;dashed=1;" edge="1" parent="1" source="3yWMJIRGumV0roXvyja1-45" target="3yWMJIRGumV0roXvyja1-44">
          <mxGeometry relative="1" as="geometry" />
        </mxCell>
        <mxCell id="3yWMJIRGumV0roXvyja1-45" value="&lt;div style=&quot;background-color: rgb(255, 255, 255); font-family: Consolas, &amp;quot;Courier New&amp;quot;, monospace; line-height: 19px; white-space: pre;&quot;&gt;&lt;div style=&quot;line-height: 19px;&quot;&gt;&lt;div style=&quot;line-height: 19px;&quot;&gt;&lt;font style=&quot;font-size: 10px;&quot;&gt;format_email&lt;/font&gt;&lt;/div&gt;&lt;/div&gt;&lt;/div&gt;" style="rounded=0;whiteSpace=wrap;html=1;sketch=1;curveFitting=1;jiggle=2;" vertex="1" parent="1">
          <mxGeometry x="553" y="53" width="160" height="40" as="geometry" />
        </mxCell>
        <mxCell id="3yWMJIRGumV0roXvyja1-1" value="&lt;b&gt;RPC Client&lt;/b&gt;" style="rounded=1;whiteSpace=wrap;html=1;fillColor=#d5e8d4;strokeColor=#82b366;align=center;labelPosition=center;verticalLabelPosition=top;verticalAlign=bottom;sketch=1;curveFitting=1;jiggle=2;" vertex="1" parent="1">
          <mxGeometry x="53" y="33" width="200" height="320" as="geometry" />
        </mxCell>
        <mxCell id="3yWMJIRGumV0roXvyja1-17" style="edgeStyle=orthogonalEdgeStyle;rounded=0;orthogonalLoop=1;jettySize=auto;html=1;exitX=0.5;exitY=1;exitDx=0;exitDy=0;entryX=0.5;entryY=0;entryDx=0;entryDy=0;shape=link;dashed=1;flowAnimation=1;" edge="1" parent="1" source="3yWMJIRGumV0roXvyja1-14" target="3yWMJIRGumV0roXvyja1-16">
          <mxGeometry relative="1" as="geometry" />
        </mxCell>
        <mxCell id="3yWMJIRGumV0roXvyja1-14" value="&lt;div style=&quot;background-color: rgb(255, 255, 255); font-family: Consolas, &amp;quot;Courier New&amp;quot;, monospace; line-height: 19px; white-space: pre;&quot;&gt;&lt;div style=&quot;line-height: 19px;&quot;&gt;&lt;font style=&quot;font-size: 10px;&quot;&gt;clean_with_llama&lt;/font&gt;&lt;/div&gt;&lt;/div&gt;" style="rounded=0;whiteSpace=wrap;html=1;sketch=1;curveFitting=1;jiggle=2;" vertex="1" parent="1">
          <mxGeometry x="73" y="113" width="160" height="40" as="geometry" />
        </mxCell>
        <mxCell id="3yWMJIRGumV0roXvyja1-19" style="edgeStyle=orthogonalEdgeStyle;rounded=0;orthogonalLoop=1;jettySize=auto;html=1;exitX=0;exitY=0.5;exitDx=0;exitDy=0;entryX=0;entryY=0.5;entryDx=0;entryDy=0;flowAnimation=1;dashed=1;endArrow=none;startFill=0;" edge="1" parent="1" source="3yWMJIRGumV0roXvyja1-14" target="3yWMJIRGumV0roXvyja1-18">
          <mxGeometry relative="1" as="geometry">
            <Array as="points">
              <mxPoint x="63" y="133" />
              <mxPoint x="63" y="253" />
            </Array>
          </mxGeometry>
        </mxCell>
        <mxCell id="3yWMJIRGumV0roXvyja1-16" value="&lt;div style=&quot;background-color: rgb(255, 255, 255); font-family: Consolas, &amp;quot;Courier New&amp;quot;, monospace; line-height: 19px; white-space: pre;&quot;&gt;&lt;div style=&quot;line-height: 19px;&quot;&gt;&lt;div style=&quot;line-height: 19px;&quot;&gt;&lt;div style=&quot;line-height: 19px;&quot;&gt;&lt;font style=&quot;font-size: 10px;&quot;&gt;parse_llama_response&lt;/font&gt;&lt;/div&gt;&lt;/div&gt;&lt;/div&gt;&lt;/div&gt;" style="rounded=0;whiteSpace=wrap;html=1;sketch=1;curveFitting=1;jiggle=2;" vertex="1" parent="1">
          <mxGeometry x="74.25" y="173" width="160" height="40" as="geometry" />
        </mxCell>
        <mxCell id="3yWMJIRGumV0roXvyja1-27" style="edgeStyle=orthogonalEdgeStyle;rounded=0;orthogonalLoop=1;jettySize=auto;html=1;exitX=0.5;exitY=1;exitDx=0;exitDy=0;entryX=0.5;entryY=0;entryDx=0;entryDy=0;dashed=1;flowAnimation=1;endArrow=none;startFill=0;" edge="1" parent="1" source="3yWMJIRGumV0roXvyja1-18" target="3yWMJIRGumV0roXvyja1-26">
          <mxGeometry relative="1" as="geometry" />
        </mxCell>
        <mxCell id="3yWMJIRGumV0roXvyja1-18" value="&lt;div style=&quot;background-color: rgb(255, 255, 255); font-family: Consolas, &amp;quot;Courier New&amp;quot;, monospace; line-height: 19px; white-space: pre;&quot;&gt;&lt;div style=&quot;line-height: 19px;&quot;&gt;&lt;div style=&quot;line-height: 19px;&quot;&gt;&lt;div style=&quot;line-height: 19px;&quot;&gt;&lt;div style=&quot;line-height: 19px;&quot;&gt;&lt;font style=&quot;font-size: 10px;&quot;&gt;analyze_sentiment_with_llama&lt;/font&gt;&lt;/div&gt;&lt;/div&gt;&lt;/div&gt;&lt;/div&gt;&lt;/div&gt;" style="rounded=0;whiteSpace=wrap;html=1;sketch=1;curveFitting=1;jiggle=2;" vertex="1" parent="1">
          <mxGeometry x="74.25" y="233" width="160" height="40" as="geometry" />
        </mxCell>
        <mxCell id="3yWMJIRGumV0roXvyja1-29" style="edgeStyle=orthogonalEdgeStyle;rounded=0;orthogonalLoop=1;jettySize=auto;html=1;exitX=0.5;exitY=1;exitDx=0;exitDy=0;entryX=0.5;entryY=0;entryDx=0;entryDy=0;dashed=1;flowAnimation=1;endArrow=none;startFill=0;" edge="1" parent="1" source="3yWMJIRGumV0roXvyja1-23" target="3yWMJIRGumV0roXvyja1-14">
          <mxGeometry relative="1" as="geometry" />
        </mxCell>
        <mxCell id="3yWMJIRGumV0roXvyja1-23" value="&lt;div style=&quot;background-color: rgb(255, 255, 255); font-family: Consolas, &amp;quot;Courier New&amp;quot;, monospace; line-height: 19px; white-space: pre;&quot;&gt;&lt;div style=&quot;line-height: 19px;&quot;&gt;&lt;div style=&quot;line-height: 19px;&quot;&gt;&lt;font style=&quot;font-size: 10px;&quot;&gt;GmailRpcClient&lt;/font&gt;&lt;/div&gt;&lt;/div&gt;&lt;/div&gt;" style="rounded=0;whiteSpace=wrap;html=1;sketch=1;curveFitting=1;jiggle=2;" vertex="1" parent="1">
          <mxGeometry x="73" y="53" width="160" height="40" as="geometry" />
        </mxCell>
        <mxCell id="3yWMJIRGumV0roXvyja1-26" value="&lt;div style=&quot;background-color: rgb(255, 255, 255); font-family: Consolas, &amp;quot;Courier New&amp;quot;, monospace; line-height: 19px; white-space: pre;&quot;&gt;&lt;div style=&quot;line-height: 19px;&quot;&gt;&lt;div style=&quot;line-height: 19px;&quot;&gt;&lt;div style=&quot;line-height: 19px;&quot;&gt;&lt;div style=&quot;line-height: 19px;&quot;&gt;&lt;div style=&quot;line-height: 19px;&quot;&gt;&lt;font style=&quot;font-size: 10px;&quot;&gt;send_to_rabbitmq&lt;/font&gt;&lt;/div&gt;&lt;/div&gt;&lt;/div&gt;&lt;/div&gt;&lt;/div&gt;&lt;/div&gt;" style="rounded=0;whiteSpace=wrap;html=1;sketch=1;curveFitting=1;jiggle=2;" vertex="1" parent="1">
          <mxGeometry x="73" y="293" width="160" height="40" as="geometry" />
        </mxCell>
      </root>
    </mxGraphModel>
  </diagram>
</mxfile>
